<svg xmlns="http://www.w3.org/2000/svg" xmlns:xlink="http://www.w3.org/1999/xlink" width="1280" zoomAndPan="magnify" viewBox="0 0 960 940.499972" height="1254" preserveAspectRatio="xMidYMid meet" version="1.0"><path fill="#ffffff" d="M 332.183594 95.492188 C 327.128906 101.078125 327.875 109.910156 333.839844 115.035156 C 336.585938 117.402344 340.398438 119.335938 342.304688 119.335938 C 348.320312 119.335938 355.769531 111.382812 355.769531 104.960938 C 355.769531 96.839844 350.609375 91.796875 342.304688 91.796875 C 337.847656 91.796875 334.386719 93.058594 332.183594 95.492188 M 173.976562 97.316406 C 167.734375 99.832031 166.054688 105.003906 166.054688 121.722656 C 166.054688 139.90625 169.652344 146.875 179.039062 146.875 C 189.246094 146.875 191.757812 141.824219 191.757812 121.304688 C 191.757812 103.800781 191.566406 102.929688 186.921875 99.273438 C 181.652344 95.128906 180.023438 94.882812 173.976562 97.316406 M 119.34375 150.957031 C 114.957031 157.214844 115.753906 164.394531 121.320312 168.773438 C 125.261719 171.875 128.753906 172.574219 140.140625 172.550781 C 158.160156 172.519531 161.949219 171.394531 165.195312 165.117188 C 168.007812 159.683594 167.308594 155.410156 162.738281 150.089844 C 160.441406 147.414062 156.804688 146.875 141.089844 146.875 C 123.652344 146.875 121.980469 147.1875 119.34375 150.957031 M 194.617188 150.957031 C 190.230469 157.214844 191.027344 164.394531 196.59375 168.773438 C 200.550781 171.886719 204.046875 172.578125 215.785156 172.578125 C 232.417969 172.578125 239.078125 170.175781 240.835938 163.542969 C 242.425781 157.539062 241.738281 154.128906 238.125 150.089844 C 235.742188 147.421875 232.03125 146.875 216.363281 146.875 C 198.925781 146.875 197.253906 147.1875 194.617188 150.957031 M 411.050781 156.742188 C 374.082031 173.957031 373.996094 225.441406 410.90625 244.585938 C 422.453125 250.578125 441.246094 250.214844 453.597656 243.761719 C 475.882812 232.121094 485.417969 207.492188 477.09375 183.070312 C 473.601562 172.8125 462.324219 160.691406 451.851562 155.9375 C 440.683594 150.867188 422.910156 151.21875 411.050781 156.742188 M 518.957031 157.117188 C 488.421875 172.332031 483.1875 214.210938 508.980469 236.914062 C 517.183594 244.136719 530.921875 249.6875 540.585938 249.6875 C 560.550781 249.6875 581.757812 233.597656 587.402344 214.167969 C 591.125 201.351562 589.996094 190.449219 583.648438 177.921875 C 572.011719 154.960938 542.398438 145.4375 518.957031 157.117188 M 170.5625 175.25 C 166.449219 179.359375 166.054688 181.191406 166.054688 196.113281 C 166.054688 215.242188 169.5 222.148438 179.039062 222.148438 C 189.246094 222.148438 191.757812 217.097656 191.757812 196.578125 C 191.757812 179.074219 191.566406 178.203125 186.921875 174.546875 C 180.566406 169.550781 176.066406 169.742188 170.5625 175.25 M 421.425781 180.410156 C 408.628906 186.984375 405.25 204.8125 414.898438 214.882812 C 425.574219 226.027344 441.976562 225.222656 450.097656 213.15625 C 463.0625 193.894531 441.996094 169.835938 421.425781 180.410156 M 529.136719 180.960938 C 522.65625 184.476562 518.554688 192.523438 518.554688 201.722656 C 518.554688 215.691406 532.777344 225.84375 546.894531 221.945312 C 554.054688 219.96875 562.519531 210.980469 562.820312 205.023438 C 563.476562 192.152344 561.164062 186.726562 552.859375 181.667969 C 545.945312 177.449219 536.140625 177.160156 529.136719 180.960938 M 326.464844 240.589844 C 317.035156 245.257812 306.84375 255.296875 302.597656 264.101562 C 297.824219 273.988281 297.089844 292.039062 301.035156 302.375 C 314.046875 336.445312 358.667969 345.066406 382.894531 318.1875 C 392.320312 307.734375 396.160156 296.542969 395.207031 282.355469 C 393.917969 263.242188 383.625 247.761719 367.273438 240.335938 C 356.617188 235.496094 336.503906 235.621094 326.464844 240.589844 M 603.410156 241.570312 C 573.492188 256.480469 567.371094 296.054688 591.289062 319.972656 C 600.300781 328.984375 609.179688 332.878906 622.824219 333.800781 C 650.535156 335.667969 672.15625 316.464844 674.183594 288.171875 C 674.878906 278.507812 674.25 274.316406 670.949219 266.640625 C 666.34375 255.941406 654.457031 243.945312 644.214844 239.667969 C 633.253906 235.085938 614.683594 235.949219 603.410156 241.570312 M 464.394531 268.535156 C 421.648438 302.828125 378.238281 351.222656 364.703125 379.683594 C 346.082031 418.832031 365.058594 469.394531 405.949219 489.609375 C 417.558594 495.34375 421.953125 496.496094 434.839844 497.171875 C 451.734375 498.058594 466.304688 494.828125 479.058594 487.363281 L 486.425781 483.054688 L 499.828125 489.710938 C 523.71875 501.582031 552.117188 500.035156 574.625 485.636719 C 610.578125 462.636719 625.933594 415.425781 608.972656 380.039062 C 593.460938 347.667969 551.03125 301.105469 503.285156 264.039062 C 487.519531 251.800781 484.878906 252.105469 464.394531 268.539062 M 334.59375 265.714844 C 322.222656 273.386719 320.542969 291.195312 331.1875 301.839844 C 336.152344 306.800781 338.132812 307.519531 346.894531 307.519531 C 355.65625 307.519531 357.636719 306.800781 362.601562 301.839844 C 373.363281 291.078125 371.519531 273.082031 358.890625 265.625 C 352.253906 261.703125 340.988281 261.742188 334.589844 265.714844 M 613.589844 265.414062 C 598.851562 273.40625 599.8125 298.382812 615.136719 305.652344 C 627.027344 311.296875 640.296875 306.910156 646.265625 295.367188 C 653.738281 280.917969 642.566406 262.460938 626.445312 262.613281 C 622.136719 262.652344 616.351562 263.914062 613.589844 265.414062 M 153.191406 280.777344 C 138.847656 285.140625 127.351562 295.273438 120.8125 309.316406 L 116.519531 318.535156 L 116.511719 424.101562 C 116.496094 541.898438 117.058594 549.308594 128.59375 583.828125 C 137.902344 611.675781 149.789062 633.105469 169.597656 657.726562 C 182.785156 674.121094 195.050781 685.085938 226.640625 708.726562 C 265.902344 738.105469 281.863281 755.90625 293.273438 783.03125 C 298.570312 795.632812 303.75 818.792969 303.75 829.886719 C 303.75 837.492188 306.265625 844.3125 309.992188 846.800781 C 311.101562 847.539062 342.738281 848.160156 380.296875 848.175781 L 448.582031 848.203125 L 451.4375 844.121094 C 453.941406 840.546875 454.296875 827.300781 454.296875 737.105469 C 454.296875 627.128906 454.039062 623.519531 444.917969 605.34375 C 435.394531 586.363281 428.40625 580.023438 353.082031 522.042969 L 278.90625 464.945312 L 273.730469 433.046875 C 262.976562 366.71875 260.226562 354.304688 253.074219 339.714844 C 234.914062 302.691406 182.613281 271.828125 153.191406 280.777344 M 778.339844 281.523438 C 741.597656 293.710938 711.574219 321.351562 701.222656 352.519531 C 699.683594 357.15625 694.46875 384.457031 689.640625 413.179688 L 680.859375 465.410156 L 605.75 523.242188 C 524.476562 585.820312 521.214844 588.960938 510.945312 614.414062 L 506.621094 625.136719 L 506.09375 732.296875 C 505.625 826.914062 505.898438 839.964844 508.429688 843.828125 L 511.296875 848.203125 L 579.640625 848.175781 C 617.234375 848.160156 648.898438 847.539062 650.007812 846.800781 C 653.734375 844.3125 656.25 837.492188 656.25 829.886719 C 656.25 818.792969 661.429688 795.632812 666.726562 783.03125 C 678.085938 756.03125 693.257812 739.046875 732.441406 709.480469 C 765.558594 684.496094 777.3125 674 790.402344 657.726562 C 810.210938 633.105469 822.097656 611.675781 831.40625 583.828125 C 842.941406 549.308594 843.503906 541.898438 843.488281 424.101562 L 843.480469 318.535156 L 839.1875 309.316406 C 830.878906 291.46875 815.679688 280.878906 796.753906 279.75 C 790.585938 279.378906 782.429688 280.164062 778.339844 281.523438 M 469.464844 298.136719 C 431.351562 330.113281 393.941406 374.195312 385.355469 397.246094 C 382.40625 405.171875 382.277344 407.667969 384.238281 419.109375 C 392.257812 465.867188 438.84375 486.828125 473.980469 459.484375 C 486.101562 450.050781 488.476562 450.199219 502.238281 461.222656 C 510.019531 467.460938 523.273438 471.835938 534.382812 471.835938 C 562.117188 471.835938 587.523438 445.566406 589.75 414.597656 C 590.523438 403.792969 589.984375 400.96875 585.175781 390.730469 C 577.671875 374.765625 559.738281 351.558594 537.855469 329.503906 C 520.800781 312.320312 489.226562 284.570312 486.722656 284.570312 C 486.121094 284.570312 478.355469 290.675781 469.464844 298.136719 M 154.828125 308.335938 C 141.542969 315.558594 141.886719 312.011719 142.707031 432.867188 C 143.496094 548.855469 143.363281 547.097656 153.773438 577.402344 C 168.742188 620.980469 190.261719 648.148438 240.007812 686.269531 C 273.527344 711.953125 290.820312 728.113281 301.3125 743.554688 C 313.972656 762.183594 323.511719 785.96875 327.679688 809.292969 L 330.039062 822.5 L 428.746094 822.5 L 428.210938 726.574219 L 427.675781 630.644531 L 421.914062 618.710938 C 418.746094 612.148438 413.789062 604.136719 410.898438 600.910156 C 408.007812 597.6875 366.5 564.847656 318.65625 527.933594 C 251.578125 476.183594 230.488281 460.820312 226.503906 460.820312 C 218.289062 460.820312 211.117188 468.226562 211.132812 476.691406 C 211.148438 483.089844 216.308594 490.699219 264.898438 555.988281 C 294.460938 595.707031 319.308594 629.992188 320.117188 632.179688 C 324.984375 645.363281 307.851562 653.742188 297.914062 643.039062 C 290.828125 635.402344 192.320312 502.101562 188.703125 495.25 C 184.78125 487.824219 184.4375 471.777344 187.972656 461.125 C 190.359375 453.929688 190.042969 446.277344 184.652344 381.261719 C 181.375 341.714844 178.015625 308.671875 177.1875 307.832031 C 173.839844 304.453125 161.460938 304.734375 154.828125 308.335938 M 785.503906 306.554688 C 781.003906 308.375 781.660156 303.324219 774.457031 391.378906 C 769.917969 446.898438 769.671875 454.019531 772.035156 461.144531 C 775.496094 471.574219 775.078125 487.808594 771.15625 495.390625 C 767.660156 502.15625 669.433594 635.117188 662.085938 643.039062 C 652.167969 653.722656 635.015625 645.367188 639.871094 632.214844 C 640.671875 630.046875 665.445312 595.863281 694.925781 556.25 C 743.242188 491.328125 748.546875 483.503906 748.71875 476.929688 C 748.875 471.089844 747.890625 468.757812 743.789062 465.230469 C 735.125 457.777344 730.410156 459.246094 709.308594 475.96875 C 698.800781 484.296875 658.71875 515.273438 620.238281 544.804688 C 578.042969 577.1875 548.390625 601.230469 545.519531 605.390625 C 542.902344 609.183594 538.859375 616.417969 536.542969 621.464844 C 532.335938 630.617188 532.324219 630.953125 531.789062 726.574219 L 531.253906 822.5 L 630.007812 822.5 L 632.058594 810.109375 C 635.824219 787.339844 645.707031 762.640625 658.683594 743.554688 C 668.988281 728.398438 686.277344 712.105469 715.898438 689.632812 C 732.046875 677.386719 750.703125 661.953125 757.355469 655.34375 C 778.503906 634.339844 795.179688 607.816406 805.769531 578.332031 C 816.613281 548.152344 816.496094 549.585938 817.292969 432.867188 C 818.125 310.523438 818.574219 314.78125 804.183594 308.246094 C 796.058594 304.554688 791.476562 304.140625 785.503906 306.554688 M 206.441406 325.957031 C 206.4375 331.214844 213.632812 418.152344 214.828125 427.316406 L 215.851562 435.117188 L 225.894531 435.117188 C 231.417969 435.117188 238.808594 436.316406 242.316406 437.78125 C 248.535156 440.382812 248.671875 440.347656 247.78125 436.40625 C 247.273438 434.183594 244.363281 417.078125 241.304688 398.398438 C 236.707031 370.285156 234.667969 362.21875 229.46875 351.582031 C 222.570312 337.476562 206.445312 319.53125 206.441406 325.957031 M 743.742188 332.1875 C 729.523438 347.390625 725.222656 359.074219 718.019531 402.070312 C 714.550781 422.769531 711.964844 439.976562 712.269531 440.300781 C 712.574219 440.628906 715.335938 439.59375 718.410156 438.007812 C 721.5 436.40625 728.496094 435.117188 734.074219 435.117188 L 744.148438 435.117188 L 745.171875 427.316406 C 747.105469 412.5625 753.800781 326.613281 753.164062 324.707031 C 752.8125 323.65625 748.574219 327.023438 743.742188 332.1875 " fill-opacity="1" fill-rule="evenodd"/></svg>