<svg xmlns="http://www.w3.org/2000/svg" xmlns:xlink="http://www.w3.org/1999/xlink" width="1280" zoomAndPan="magnify" viewBox="0 0 960 940.499972" height="1254" preserveAspectRatio="xMidYMid meet" version="1.0"><path fill="#ffffff" d="M 635.1875 120.824219 L 324.8125 120.824219 C 292.726562 120.824219 266.617188 94.714844 266.617188 62.628906 C 266.617188 30.542969 292.726562 4.433594 324.8125 4.433594 L 635.1875 4.433594 C 667.273438 4.433594 693.382812 30.542969 693.382812 62.628906 C 693.382812 94.714844 667.273438 120.824219 635.1875 120.824219 Z M 324.8125 43.230469 C 314.101562 43.230469 305.414062 51.921875 305.414062 62.628906 C 305.414062 73.335938 314.101562 82.027344 324.8125 82.027344 L 635.1875 82.027344 C 645.898438 82.027344 654.585938 73.335938 654.585938 62.628906 C 654.585938 51.921875 645.898438 43.230469 635.1875 43.230469 Z M 324.8125 43.230469 " fill-opacity="1" fill-rule="nonzero"/><path fill="#ffffff" d="M 746.265625 596.167969 L 615.789062 367.847656 L 615.789062 120.824219 L 576.992188 120.824219 L 576.992188 373.007812 C 576.992188 376.382812 577.886719 379.679688 579.554688 382.628906 L 695.984375 586.390625 L 264.015625 586.390625 L 380.445312 382.628906 C 382.113281 379.679688 383.007812 376.382812 383.007812 373.007812 L 383.007812 120.824219 L 344.210938 120.824219 L 344.210938 367.847656 L 213.734375 596.167969 L 82.792969 825.304688 C 69.601562 848.390625 69.71875 875.894531 83.027344 898.863281 C 96.414062 921.832031 120.234375 935.566406 146.808594 935.566406 L 813.230469 935.566406 C 839.804688 935.566406 863.625 921.832031 876.972656 898.863281 C 890.320312 875.855469 890.394531 848.351562 877.207031 825.304688 Z M 746.265625 596.167969 " fill-opacity="1" fill-rule="nonzero"/><path fill="#ffffff" d="M 343.703125 8.699219 C 296.058594 22.976562 283.492188 75.488281 318.71875 113.089844 C 329.679688 124.796875 330.058594 130.386719 327.753906 247.390625 C 325.488281 362.722656 324.503906 371.953125 309.953125 414.242188 C 300.726562 441.074219 254.191406 531.234375 193.804688 639.277344 C 138.398438 738.429688 90.363281 826.710938 87.054688 835.464844 C 77.367188 861.132812 86.390625 892.097656 110.601562 916.316406 L 131.988281 937.699219 L 481.8125 936.175781 L 831.640625 934.65625 L 846.800781 920.664062 C 864.664062 904.179688 877.304688 876.945312 877.304688 854.949219 C 877.304688 845.085938 841.613281 774.714844 781.429688 665.910156 C 664.710938 454.890625 650.847656 426.039062 639.777344 371.109375 C 629.777344 321.472656 627.164062 114.863281 636.539062 114.863281 C 639.539062 114.863281 646.101562 106.917969 651.121094 97.210938 C 669.390625 61.882812 649.429688 19.765625 609.117188 8.566406 C 584.925781 1.847656 366.207031 1.957031 343.703125 8.699219 M 343.773438 61.441406 C 340.117188 70.988281 353.800781 86.886719 365.683594 86.886719 C 372.371094 86.886719 373.671875 106.824219 373.632812 208.59375 C 373.589844 336.722656 369.140625 380.65625 350.578125 436.261719 C 344.347656 454.929688 291.59375 555.816406 233.347656 660.457031 C 175.101562 765.101562 127.453125 854.5625 127.457031 859.261719 C 127.460938 863.960938 131.386719 873.410156 136.175781 880.246094 L 144.882812 892.6875 L 815.117188 892.6875 L 823.824219 880.246094 C 828.613281 873.410156 832.539062 863.828125 832.539062 858.960938 C 832.539062 854.089844 790.714844 774.699219 739.597656 682.535156 C 581.972656 398.332031 590.875 424.730469 587.648438 232.121094 L 585.246094 89.167969 L 600.171875 82.371094 C 609.644531 78.054688 614.410156 72.019531 613.226562 65.839844 C 611.519531 56.976562 599.601562 55.972656 479.167969 54.609375 C 366.316406 53.332031 346.503906 54.328125 343.773438 61.441406 M 263.160156 672.109375 C 184.09375 818.648438 177.445312 838.199219 203.371094 848.058594 C 222.585938 855.363281 737.414062 855.363281 756.628906 848.058594 C 782.15625 838.351562 775.59375 818.921875 697.296875 672.421875 L 623.605469 534.550781 L 480.457031 534.625 L 337.304688 534.691406 Z M 263.160156 672.109375 " fill-opacity="1" fill-rule="evenodd"/></svg>