<svg xmlns="http://www.w3.org/2000/svg" xmlns:xlink="http://www.w3.org/1999/xlink" width="1280" zoomAndPan="magnify" viewBox="0 0 960 940.499972" height="1254" preserveAspectRatio="xMidYMid meet" version="1.0"><defs><clipPath id="ebd43937ec"><path d="M 1 0 L 959.742188 0 L 959.742188 940 L 1 940 Z M 1 0 " clip-rule="nonzero"/></clipPath></defs><g clip-path="url(#ebd43937ec)"><path fill="#ffffff" d="M 668.585938 1.441406 C 664.675781 2.835938 661.109375 5.285156 657.941406 8.753906 C 652.90625 14.261719 652.273438 15.925781 652.003906 24.363281 C 651.730469 32.972656 652.277344 34.660156 657.292969 40.769531 C 659.054688 42.914062 675.347656 59.578125 693.496094 77.800781 L 726.5 110.933594 L 598.882812 238.558594 L 552.101562 191.953125 C 526.371094 166.316406 503.203125 143.660156 500.617188 141.597656 C 493.054688 135.574219 492.449219 135.363281 483.222656 135.59375 C 475.863281 135.777344 475.109375 135.90625 471.761719 137.585938 C 467.011719 139.96875 461.328125 145.625 459.113281 150.175781 C 457.488281 153.507812 457.347656 154.359375 457.164062 161.777344 C 457.03125 167.1875 457.207031 170.390625 457.714844 171.667969 C 459.707031 176.707031 465.613281 183.121094 500.316406 217.933594 L 536.789062 254.519531 L 521.355469 269.78125 C 507.914062 283.074219 494.476562 296.371094 481.039062 309.671875 C 467.359375 323.21875 424.734375 365.300781 386.324219 403.191406 C 338.65625 450.207031 291.023438 497.253906 243.425781 544.328125 C 203.242188 584.0625 163.339844 623.457031 154.75 631.867188 L 139.132812 647.164062 L 148.117188 714.296875 L 157.097656 781.433594 L 155.285156 783.828125 C 154.289062 785.148438 131.484375 808.347656 104.605469 835.386719 C 79.207031 860.933594 53.820312 886.484375 28.445312 912.035156 L 1.152344 939.53125 L 3.851562 939.152344 C 5.335938 938.945312 15.585938 937.132812 26.632812 935.121094 L 46.714844 931.464844 L 112.359375 865.890625 C 157.554688 820.746094 178.394531 800.316406 179.257812 800.316406 C 179.945312 800.316406 204.089844 803.9375 232.910156 808.367188 C 308.667969 820.011719 305.453125 819.570312 306.976562 818.585938 C 309.664062 816.851562 330.949219 795.941406 541.589844 588.128906 C 591.957031 538.492188 642.273438 488.847656 692.535156 439.191406 L 707.101562 424.8125 L 714.417969 431.984375 C 718.441406 435.925781 734.546875 451.847656 750.207031 467.367188 C 768.265625 485.253906 780.292969 496.699219 783.078125 498.640625 C 788.414062 502.363281 792.03125 503.28125 799.363281 502.765625 C 809.078125 502.085938 817.34375 496.320312 821.945312 487.003906 C 824.226562 482.386719 824.246094 482.296875 824.246094 475.125 C 824.246094 468.292969 824.152344 467.734375 822.527344 464.800781 C 819.492188 459.324219 811.921875 451.375 766.25 405.695312 C 741.601562 381.046875 721.433594 360.601562 721.433594 360.265625 C 721.433594 359.929688 749.9375 331.066406 784.773438 296.128906 L 848.109375 232.601562 L 882.039062 266.332031 C 914.347656 298.449219 921.265625 304.851562 925.710938 306.734375 C 930.441406 308.734375 939.574219 308.242188 944.824219 305.699219 C 948.472656 303.933594 953.339844 299.328125 955.691406 295.417969 C 958.476562 290.785156 959.679688 284.59375 958.84375 279.203125 C 958.492188 276.917969 957.816406 274.3125 957.351562 273.40625 C 956.882812 272.5 952.921875 267.875 948.546875 263.125 C 937.921875 251.585938 705.933594 19.570312 695.792969 10.34375 C 688.988281 4.152344 687.300781 2.921875 684.136719 1.855469 C 679.832031 0.402344 672.074219 0.195312 668.585938 1.441406 M 685.761719 198.476562 L 622.21875 262.066406 L 659.605469 299.191406 C 680.167969 319.609375 697.25 336.316406 697.570312 336.316406 C 697.890625 336.316406 726.734375 307.796875 761.671875 272.945312 L 825.191406 209.574219 L 787.851562 172.230469 C 767.316406 151.691406 750.242188 134.890625 749.910156 134.890625 C 749.578125 134.890625 720.710938 163.503906 685.761719 198.476562 M 540.800781 297.527344 L 521.726562 316.234375 L 543.992188 338.972656 C 556.238281 351.480469 566.773438 362.734375 567.410156 363.976562 C 570.773438 370.566406 566.617188 380.53125 559.703125 382.449219 C 556.84375 383.242188 551.71875 383.25 549.648438 382.460938 C 548.761719 382.125 537.695312 371.570312 525.058594 359.003906 L 502.078125 336.160156 L 487.367188 350.425781 L 472.65625 364.695312 L 494.496094 386.695312 C 506.503906 398.792969 517.160156 409.992188 518.171875 411.585938 C 524.042969 420.847656 515.191406 433.625 504.054688 431.953125 C 500.597656 431.4375 500.101562 431 474.511719 405.945312 C 462.839844 394.519531 453.128906 385.105469 452.925781 385.023438 C 452.722656 384.9375 446.09375 391.339844 438.195312 399.242188 L 423.832031 413.617188 L 446.644531 436.5625 C 465.777344 455.804688 469.632812 459.96875 470.53125 462.347656 C 472.785156 468.3125 470.296875 475.144531 464.585938 478.675781 C 462.035156 480.253906 461.089844 480.492188 457.351562 480.492188 C 453.238281 480.492188 452.929688 480.390625 450.113281 478.113281 C 448.496094 476.804688 437.382812 466.023438 425.417969 454.15625 L 403.664062 432.578125 L 374.691406 461.550781 L 396.566406 483.609375 C 408.597656 495.742188 419.375 507.019531 420.515625 508.667969 C 422.355469 511.332031 422.585938 512.097656 422.589844 515.5625 C 422.589844 518.761719 422.289062 519.972656 420.890625 522.351562 C 417.929688 527.390625 412.046875 530.054688 406.105469 529.050781 C 402.890625 528.507812 402.191406 527.882812 375.929688 502.203125 L 354.449219 481.195312 L 339.976562 495.667969 L 325.5 510.140625 L 347.722656 532.484375 C 359.945312 544.773438 370.824219 556.132812 371.902344 557.726562 C 374.316406 561.300781 374.789062 564.3125 373.515625 568.050781 C 372.140625 572.085938 370.035156 574.554688 366.4375 576.347656 C 362.460938 578.328125 358.375 578.414062 354.617188 576.597656 C 352.714844 575.675781 345.09375 568.53125 328.984375 552.566406 L 306.058594 529.84375 L 300.480469 535.113281 C 297.410156 538.007812 290.792969 544.429688 285.773438 549.378906 L 276.648438 558.375 L 297.199219 579.082031 C 325.425781 607.527344 326.464844 608.859375 325.226562 615.023438 C 323.851562 621.871094 318.484375 626.449219 311.816406 626.460938 C 309.910156 626.460938 307.484375 626.101562 306.421875 625.65625 C 304.351562 624.789062 292.28125 613.410156 270.507812 591.792969 L 256.910156 578.292969 L 242.632812 592.136719 C 215.441406 618.507812 176.011719 658.5 175.605469 660.121094 C 175.160156 661.886719 175.675781 666.40625 180.71875 704.996094 C 186.273438 747.542969 189.003906 766.898438 189.519531 767.394531 C 189.96875 767.828125 213.519531 771.578125 270.023438 780.21875 L 295.5 784.117188 L 308.089844 771.621094 C 315.015625 764.75 384.75 695.910156 463.054688 618.644531 C 621.09375 462.710938 682.46875 401.753906 682.46875 400.730469 C 682.46875 399.953125 561.078125 278.75 560.347656 278.792969 C 560.085938 278.808594 551.289062 287.242188 540.800781 297.527344 " fill-opacity="1" fill-rule="evenodd"/></g></svg>