<svg xmlns="http://www.w3.org/2000/svg" xmlns:xlink="http://www.w3.org/1999/xlink" width="1280" zoomAndPan="magnify" viewBox="0 0 960 940.499972" height="1254" preserveAspectRatio="xMidYMid meet" version="1.0"><path fill="#ffffff" d="M 199.101562 3.582031 C 173.683594 9.597656 155.894531 18.003906 133.851562 34.40625 C 105.03125 55.859375 72.527344 95.578125 54.433594 131.460938 C 36.503906 167.019531 27.921875 215.722656 31.976562 258.867188 C 36.339844 305.273438 43.664062 332.878906 75.566406 423.183594 C 84.128906 447.417969 93.554688 476.335938 96.519531 487.441406 C 102.152344 508.5625 102.167969 508.730469 105.535156 586.855469 C 112.335938 744.71875 147.609375 869.589844 198.542969 916.140625 C 203.992188 921.121094 214.769531 928.320312 222.496094 932.140625 C 236.214844 938.917969 237.027344 939.082031 256.839844 939.042969 C 286.335938 938.988281 302.695312 932.03125 322.890625 910.953125 C 347.660156 885.109375 362.101562 851.761719 385.4375 766.503906 C 407.054688 687.527344 420.335938 652.726562 437.28125 630.644531 C 450.625 613.261719 470.945312 605.046875 490.492188 609.140625 C 502.664062 611.691406 511.808594 617.917969 519.84375 629.132812 C 534.121094 649.042969 542.902344 675.011719 561.414062 752.027344 C 579.871094 828.820312 590.953125 859.441406 610.546875 887.789062 C 615.855469 895.464844 624.796875 905.867188 630.421875 910.910156 C 642.691406 921.90625 665.710938 933.40625 681.539062 936.449219 C 696.550781 939.332031 724.410156 937.792969 735.195312 933.484375 C 783.578125 914.164062 817.007812 855.71875 837.980469 753.777344 C 849.0625 699.925781 854.582031 644.300781 858.191406 550.121094 C 860.0625 501.300781 861.398438 494.636719 880.28125 439.707031 C 910.230469 352.59375 921 314.574219 926.304688 277.226562 C 929.46875 254.957031 929.011719 213.496094 925.390625 194.273438 C 916.007812 144.457031 894.558594 106.128906 851.28125 61.832031 C 792.328125 1.488281 728.75 -12.613281 637.890625 14.5 C 628.296875 17.363281 604.476562 24.753906 584.949219 30.929688 C 531.867188 47.71875 510.535156 51.941406 478.164062 52.066406 C 442.15625 52.207031 424.550781 48.507812 356.992188 26.597656 C 313.832031 12.605469 291.675781 6.542969 270.003906 2.808594 C 248.363281 -0.917969 216.648438 -0.574219 199.101562 3.582031 M 220.46875 79.1875 C 198.707031 82.25 176.464844 96.5625 155.765625 120.820312 C 122.167969 160.199219 110.183594 191.003906 110.277344 237.753906 C 110.359375 278.089844 117.753906 309.199219 145.976562 387.894531 C 177.460938 475.671875 180.296875 488.925781 182.609375 559.042969 C 183.542969 587.316406 185.589844 623.253906 187.164062 638.90625 C 197.589844 742.679688 221.492188 827.195312 248.425781 855.511719 C 256.632812 864.136719 260.519531 863.855469 269.175781 853.996094 C 281.449219 840.015625 290.941406 814.609375 311.113281 741.71875 C 325.796875 688.660156 328.894531 678.675781 338.917969 652.082031 C 353.625 613.082031 368.785156 588.019531 390.945312 566.082031 C 403.464844 553.691406 409.070312 549.675781 423.308594 542.910156 C 444.175781 532.988281 457.070312 530.070312 480 530.074219 C 501.707031 530.082031 515.691406 532.910156 532.742188 540.738281 C 561.410156 553.90625 581.304688 574.882812 599.367188 611.003906 C 612.703125 637.664062 621.75 666.789062 637.976562 735.269531 C 659.066406 824.289062 673.082031 854.019531 696.296875 858.972656 C 706.019531 861.042969 710.476562 859.660156 717.101562 852.519531 C 738.699219 829.230469 758.316406 768.050781 769.109375 690.3125 C 773.808594 656.476562 777.371094 608.703125 779.25 554.453125 C 780.59375 515.664062 781.882812 499.710938 784.824219 485.605469 C 786.929688 475.507812 799.699219 434.199219 813.195312 393.808594 C 826.691406 353.417969 839.832031 310.871094 842.390625 299.257812 C 860.246094 218.238281 849.078125 172.21875 798.851562 119.859375 C 782.097656 102.394531 764.609375 89.847656 748.964844 84.074219 C 740.140625 80.820312 734.113281 80.019531 718.671875 80.058594 C 693.90625 80.117188 678.5 83.457031 626.046875 100.136719 C 542.933594 126.5625 517.140625 131.375 467.148438 129.765625 C 422.921875 128.339844 403.054688 124.042969 329.316406 99.945312 C 271.960938 81.203125 244.019531 75.871094 220.46875 79.1875 " fill-opacity="1" fill-rule="evenodd"/></svg>