<svg xmlns="http://www.w3.org/2000/svg" viewBox="0 0 1200 520" role="img" aria-label="Ambulances">
  <defs>
    <linearGradient id="bg" x1="0" y1="0" x2="1" y2="1">
      <stop offset="0%" stop-color="#fff5f5"/>
      <stop offset="100%" stop-color="#ffd3d3"/>
    </linearGradient>
  </defs>
  <rect width="1200" height="520" rx="24" fill="url(#bg)"/>
  <g fill="#ffb0b0" opacity=".35">
    <rect x="740" y="360" width="430" height="12"/>
    <rect x="760" y="385" width="390" height="10"/>
    <rect x="790" y="408" width="330" height="8"/>
  </g>
  <g transform="translate(748 165)">
    <rect x="92" y="72" width="265" height="126" rx="24" fill="#ff9a9a" opacity=".85"/>
    <path d="M36 150 h96 l46-73 h126 c30 0 53 23 53 53 v20 h-321 z" fill="#ff8888" opacity=".9"/>
    <rect x="212" y="98" width="68" height="36" rx="8" fill="#ffe2e2" opacity=".95"/>
    <circle cx="108" cy="206" r="27" fill="#ffffff"/>
    <circle cx="288" cy="206" r="27" fill="#ffffff"/>
    <circle cx="108" cy="206" r="12" fill="#ffb7b7"/>
    <circle cx="288" cy="206" r="12" fill="#ffb7b7"/>
    <rect x="231" y="108" width="30" height="58" rx="6" fill="#ffffff"/>
    <rect x="217" y="123" width="58" height="30" rx="6" fill="#ffffff"/>
  </g>
  <path d="M1060 95 h90" stroke="#fda7a7" stroke-width="8" stroke-linecap="round"/>
  <path d="M1105 50 v90" stroke="#fda7a7" stroke-width="8" stroke-linecap="round"/>
</svg>
