<svg xmlns="http://www.w3.org/2000/svg" viewBox="0 0 1200 520" role="img" aria-label="Hospitalisation">
  <defs>
    <linearGradient id="bg" x1="0" y1="0" x2="1" y2="1">
      <stop offset="0%" stop-color="#f8f5ff"/>
      <stop offset="100%" stop-color="#ddd3ff"/>
    </linearGradient>
  </defs>
  <rect width="1200" height="520" rx="24" fill="url(#bg)"/>
  <rect x="805" y="105" width="300" height="200" rx="16" fill="#baa8ff" opacity=".64"/>
  <rect x="850" y="68" width="86" height="76" rx="12" fill="#c6b6ff" opacity=".78"/>
  <rect x="889" y="83" width="13" height="46" rx="4" fill="#ffffff"/>
  <rect x="873" y="99" width="45" height="13" rx="4" fill="#ffffff"/>
  <g fill="#d8cdff" opacity=".85">
    <rect x="844" y="168" width="38" height="34"/>
    <rect x="901" y="168" width="38" height="34"/>
    <rect x="958" y="168" width="38" height="34"/>
    <rect x="1015" y="168" width="38" height="34"/>
    <rect x="844" y="220" width="38" height="34"/>
    <rect x="901" y="220" width="38" height="34"/>
    <rect x="958" y="220" width="38" height="34"/>
    <rect x="1015" y="220" width="38" height="34"/>
  </g>
  <rect x="730" y="312" width="320" height="92" rx="20" fill="#b3a1ff" opacity=".7"/>
  <rect x="730" y="282" width="34" height="42" rx="8" fill="#cabfff" opacity=".9"/>
  <rect x="1016" y="282" width="34" height="42" rx="8" fill="#cabfff" opacity=".9"/>
  <rect x="1048" y="330" width="38" height="16" rx="8" fill="#c1b0ff"/>
</svg>
