<svg xmlns="http://www.w3.org/2000/svg" viewBox="0 0 1600 700" role="img" aria-label="Fond rapatriement">
  <defs>
    <linearGradient id="g6" x1="0" y1="0" x2="1" y2="1">
      <stop offset="0%" stop-color="#0d375f"/>
      <stop offset="100%" stop-color="#2f8ac9"/>
    </linearGradient>
  </defs>
  <rect width="1600" height="700" fill="url(#g6)"/>
  <g stroke="rgba(255,255,255,.20)" fill="none">
    <path d="M120 520 C360 420 540 500 780 410 C1010 330 1220 380 1460 280" stroke-width="4"/>
    <path d="M180 610 C420 510 640 590 860 500 C1060 420 1270 450 1500 360" stroke-width="3"/>
    <circle cx="120" cy="520" r="8" fill="rgba(255,255,255,.40)"/>
    <circle cx="780" cy="410" r="8" fill="rgba(255,255,255,.40)"/>
    <circle cx="1460" cy="280" r="8" fill="rgba(255,255,255,.40)"/>
  </g>
  <g fill="rgba(255,255,255,.14)">
    <path d="M1150 170 l180 80 -110 30 40 85 -45 20 -40 -88 -95 62z"/>
  </g>
  <path d="M0 640 C270 560 520 700 780 640 C1060 580 1290 700 1600 620 L1600 700 L0 700 Z" fill="rgba(255,255,255,.18)"/>
</svg>
